<svg xmlns="http://www.w3.org/2000/svg" version="1.1" xmlns:xlink="http://www.w3.org/1999/xlink" xmlns:svgjs="http://svgjs.dev/svgjs" width="1000" height="623" viewBox="0 0 1000 623"><g transform="matrix(1,0,0,1,-0.6060606060606233,0.2522267206477409)"><svg viewBox="0 0 396 247" data-background-color="#0a1627" preserveAspectRatio="xMidYMid meet" height="623" width="1000" xmlns="http://www.w3.org/2000/svg" xmlns:xlink="http://www.w3.org/1999/xlink"><g id="tight-bounds" transform="matrix(1,0,0,1,0.2400000000000091,-0.09999999999999432)"><svg viewBox="0 0 395.52 247.2" height="247.2" width="395.52"><g><svg></svg></g><g><svg viewBox="0 0 395.52 247.2" height="247.2" width="395.52"><g transform="matrix(1,0,0,1,112.59759449532754,37.08000000000001)"><svg viewBox="0 0 170.3248110093449 173.03999999999996" height="173.03999999999996" width="170.3248110093449"><g><svg viewBox="0 0 170.3248110093449 173.03999999999996" height="173.03999999999996" width="170.3248110093449"><g><svg viewBox="0 0 170.3248110093449 173.03999999999996" height="173.03999999999996" width="170.3248110093449"><g><svg viewBox="0 0 170.3248110093449 173.03999999999996" height="173.03999999999996" width="170.3248110093449"><g id="textblocktransform"><svg viewBox="0 0 170.3248110093449 173.03999999999996" height="173.03999999999996" width="170.3248110093449" id="textblock"><g><svg viewBox="0 0 170.3248110093449 173.03999999999996" height="173.03999999999996" width="170.3248110093449"><g transform="matrix(1,0,0,1,0,0)"><svg width="170.3248110093449" viewBox="-3.0199999809265137 -39.0099983215332 42.35000228881836 43.0099983215332" height="173.03999999999996" data-palette-color="#fe0039"><path d="M35.33-35.01L35.33-28.66 21.34-28.66 21.34 0 14.99 0 14.99-28.66 0.98-28.66 0.98-35.01 35.33-35.01Z" opacity="1" transform="matrix(1,0,0,1,0,0)" fill="#fe0039" class="undefined-text-0" data-fill-palette-color="primary" id="text-0"></path></svg></g></svg></g></svg></g></svg></g><g></g></svg></g></svg></g></svg></g><g mask="url(#2c415df9-39e6-4ec7-bb1a-f84e13402a44)"><g transform="matrix(15.325, 0, 0, 15.325, 75.16, 1)"><svg xmlns="http://www.w3.org/2000/svg" version="1.1" data-icon="text" viewBox="0 0 16 16" x="0" y="0" height="16" width="16" class="icon-none" data-fill-palette-color="accent" id="none"><path d="M1 0l-1 4h1c0-1.1 0.9-2 2-2h3v12c0 0.6-0.4 1-1 1h-1v1h8v-1h-1c-0.6 0-1-0.4-1-1v-12h3c1.1 0 2 0.9 2 2h1l-1-4h-14z" fill="#c1c1c1" data-fill-palette-color="accent"></path></svg></g></g><mask id="2c415df9-39e6-4ec7-bb1a-f84e13402a44"><rect width="640" height="400" fill="white"></rect><g transform="matrix(1,0,0,1,112.59759449532754,37.08000000000001)"><svg viewBox="0 0 170.3248110093449 173.03999999999996" height="173.03999999999996" width="170.3248110093449"><g><svg viewBox="0 0 170.3248110093449 173.03999999999996" height="173.03999999999996" width="170.3248110093449"><g><svg viewBox="0 0 170.3248110093449 173.03999999999996" height="173.03999999999996" width="170.3248110093449"><g><svg viewBox="0 0 170.3248110093449 173.03999999999996" height="173.03999999999996" width="170.3248110093449"><g id="SvgjsG1032"><svg viewBox="0 0 170.3248110093449 173.03999999999996" height="173.03999999999996" width="170.3248110093449" id="SvgjsSvg1031"><g><svg viewBox="0 0 170.3248110093449 173.03999999999996" height="173.03999999999996" width="170.3248110093449"><g transform="matrix(1,0,0,1,0,0)"><svg width="170.3248110093449" viewBox="-3.0199999809265137 -39.0099983215332 42.35000228881836 43.0099983215332" height="173.03999999999996" data-palette-color="#fe0039"><path d="M35.33-35.01L35.33-28.66 21.34-28.66 21.34 0 14.99 0 14.99-28.66 0.98-28.66 0.98-35.01 35.33-35.01Z" opacity="1" transform="matrix(1,0,0,1,0,0)" fill="#fe0039" class="undefined-text-0" data-fill-palette-color="primary" id="SvgjsPath1030" stroke-width="7" stroke="black" stroke-linejoin="round"></path></svg></g></svg></g></svg></g></svg></g><g></g></svg></g></svg></g></svg></g></mask></svg></g><defs></defs></svg><rect width="395.52" height="247.2" fill="none" stroke="none" visibility="hidden"></rect></g></svg></g></svg>